<svg id="Layer_1" data-name="Layer 1" xmlns="http://www.w3.org/2000/svg" xmlns:xlink="http://www.w3.org/1999/xlink" viewBox="0 0 556.32 556.32"><defs><linearGradient id="linear-gradient" x1="136.08" y1="283.7" x2="411.41" y2="283.7" gradientUnits="userSpaceOnUse"><stop offset="0" stop-color="#fff"/><stop offset="0.25" stop-color="#f1f0f0"/><stop offset="0.55" stop-color="#e9e6e6"/><stop offset="0.93" stop-color="#e6e3e3"/></linearGradient><linearGradient id="linear-gradient-2" x1="20.09" y1="403.53" x2="446.41" y2="403.53" gradientUnits="userSpaceOnUse"><stop offset="0" stop-color="#ddd9d7"/><stop offset="0.29" stop-color="#bbb5b1"/><stop offset="0.58" stop-color="#9f9893"/><stop offset="0.83" stop-color="#8f8681"/><stop offset="1" stop-color="#89807a"/></linearGradient></defs><circle cx="278.58" cy="277.21" r="265.39" fill="#0b2f72" stroke="#0b2f72" stroke-miterlimit="10" stroke-width="12"/><path d="M279.63,8.81c146,0,262.79,119.82,262.79,264.92" fill="#0b2f72" stroke="#9c9690" stroke-miterlimit="10"/><path d="M244.14,19.61" fill="none" stroke="#ddd9d7" stroke-miterlimit="10" stroke-width="11"/><path d="M4.83,283.43" fill="none" stroke="#ddd9d7" stroke-miterlimit="10" stroke-width="11"/><path d="M434.51,441.51C399.35,399.78,378,344.67,378,284.25c0-66.1,25.58-125.85,66.81-168.71,41.21,42.89,66.79,102.63,66.79,168.71s-46.16,146-87.37,188.86" fill="none" stroke="#89807a" stroke-linejoin="round" stroke-width="50"/><g opacity="0.95"><path d="M393.74,283.92c0,41.05,16.08,89.7,16.08,89.7,5.18,15.67-3.5,24.56-19.29,19.77L164.78,324.8c-15.78-4.8-28.7-22.22-28.7-38.72v-1.5c0-16.5,12.87-34.06,28.61-39l226-71.43c15.73-5,24.36,3.78,19.17,19.44C409.9,193.55,393.74,242.31,393.74,283.92Z" fill="url(#linear-gradient)"/></g><path d="M379.25,285c0,41.81,10.07,81.12,28.87,115.18l-34.79-12A263,263,0,0,1,352.55,285a271.2,271.2,0,0,1,21.12-105.44l33.57-12C388,201.91,379.25,242.67,379.25,285Z" fill="#c8c4c2"/><path d="M403.05,284.2c0,46.71,14.65,91.72,41.48,128.26l-38.79-13.13a248.71,248.71,0,0,1,.68-231.47l38.43-13.55s14,18.37,25.69,49A210.69,210.69,0,0,0,444.41,156C417.59,192.52,403.05,237.11,403.05,284.2Z" fill="#c8c4c2"/><path d="M449.1,407.5" fill="#fff"/><path d="M444.53,412.44C416,375.68,401,330.28,401,283.28a209.13,209.13,0,0,1,43.94-129,209.27,209.27,0,0,1,27.75,47.59,225.25,225.25,0,0,1,15.18,60.65c.1,1,.19,2.06.28,3.1q.8,8.87.81,18.2a210.4,210.4,0,0,1-11,66.81c-.05.14-.08.28-.13.42l-.78,2.25c-.67,1.94-1.37,3.83-2.06,5.69-.26.67-.51,1.35-.77,2-.66,1.66-1.32,3.27-2,4.87s-1.15,2.46-1.79,3.88c-.07.16-.37.72-.43.86-.31.71-.45,1-.76,1.7s-2.66,5.33-4.65,9.35a120.06,120.06,0,0,1-7.85,13.47c-2.24,3.48-6.38,9.63-8.11,12" fill="#fff"/><path d="M133.58,285.42H45.09c0,130.47,105.66,236.22,236,236.22a235,235,0,0,0,109.53-26.93c19.25-10.49,29.47-17.9,38.15-26.58" fill="none" stroke-linejoin="round" stroke-width="50" stroke="url(#linear-gradient-2)"/><path d="M541.52,279.24c0,145.7-118.11,263.81-263.81,263.81S13.9,424.94,13.9,279.24" fill="none" stroke="#0b2f72" stroke-miterlimit="10" stroke-width="12"/><path d="M278.1,12.39c144.93-2,260.62,113.73,263.42,266.85" fill="none" stroke="#0b2f72" stroke-miterlimit="10" stroke-width="12"/><path d="M13.9,279.24c0-145.7,118.5-265.83,264.2-265.83" fill="none" stroke="#0b2f72" stroke-miterlimit="10" stroke-width="12"/><path d="M278.16,4C429.57,4,552.32,126.75,552.32,278.16" fill="none" stroke="#ddd9d7" stroke-miterlimit="10" stroke-width="8"/><path d="M552.32,278.16c0,151.41-122.75,274.16-274.16,274.16S4,429.57,4,278.16,126.75,4,278.16,4" fill="none" stroke="#ddd9d7" stroke-miterlimit="10" stroke-width="8"/></svg>