<svg id="Layer_1" data-name="Layer 1" xmlns="http://www.w3.org/2000/svg" xmlns:xlink="http://www.w3.org/1999/xlink" viewBox="0 0 1674.03 556.32"><defs><linearGradient id="linear-gradient" x1="136.08" y1="283.7" x2="411.41" y2="283.7" gradientUnits="userSpaceOnUse"><stop offset="0" stop-color="#fff"/><stop offset="0.25" stop-color="#f1f0f0"/><stop offset="0.55" stop-color="#e9e6e6"/><stop offset="0.93" stop-color="#e6e3e3"/></linearGradient><linearGradient id="linear-gradient-2" x1="20.09" y1="403.53" x2="446.41" y2="403.53" gradientUnits="userSpaceOnUse"><stop offset="0" stop-color="#ddd9d7"/><stop offset="0.29" stop-color="#bbb5b1"/><stop offset="0.58" stop-color="#9f9893"/><stop offset="0.83" stop-color="#8f8681"/><stop offset="1" stop-color="#89807a"/></linearGradient></defs><path d="M676.16,279.77,751,489.18H735.77A32.12,32.12,0,0,1,716,482.62a34.86,34.86,0,0,1-12.31-17L695.28,440H593.55l-8.75,25.58a33.82,33.82,0,0,1-12.31,17.17,32.13,32.13,0,0,1-19.44,6.4H537.5l75.16-209.75a32.6,32.6,0,0,1,7.13-11.95A34.69,34.69,0,0,1,631,259.4a33,33,0,0,1,26.89,0A34.76,34.76,0,0,1,669,267.48,32.23,32.23,0,0,1,676.16,279.77Zm-73.54,133h83.26l-41.47-123.9Z"/><path d="M861.48,390.53l-6.8,1.69,58,96.29H895.82a40.16,40.16,0,0,1-20.73-5.73A42.85,42.85,0,0,1,859.54,467l-42.77-74.07H788.59v95.28a41.61,41.61,0,0,1-19-7.41A43.47,43.47,0,0,1,756,465.11a44,44,0,0,1-5-20.71V297.28a46.9,46.9,0,0,1,2.1-14.14,41.84,41.84,0,0,1,6-12.12,44.17,44.17,0,0,1,9.24-9.43A42.14,42.14,0,0,1,780,255.36a40.75,40.75,0,0,1,13.45-2.19h42.76q39.19,0,59.29,19.53,20.09,19.19,20.09,51.17,0,25.94-13.77,43.43T861.48,390.53Zm-52.81-21.21H832q13.61,0,23-3.87t13.93-10.27a42.84,42.84,0,0,0,6.48-13.29,55,55,0,0,0,2-15q0-19.86-11.34-31-11.34-11.44-34-11.45H788.59v63.63a21.14,21.14,0,0,0,5.83,15A18.77,18.77,0,0,0,808.67,369.32Z"/><path d="M1123.1,421q5.34,10.28-.81,20a96.72,96.72,0,0,1-22,25.25q-27.87,22.56-70.31,22.55-32.4,0-57.18-15.15t-38.39-42.42Q920.77,404,920.77,369q0-35.36,13.61-62.62T972.61,264q24.61-15.16,57.34-15.15,42.45,0,70.31,22.89a91.9,91.9,0,0,1,22,24.91q6.15,9.78.81,20t-16.36,10.27q-10.38,0-16.2-9.42a68.1,68.1,0,0,0-19.44-20.88q-17.5-12.45-41.8-12.45A65.61,65.61,0,0,0,993,294.58q-16.2,10.44-25.27,30Q959,343.73,959,369t8.75,44.44q9.06,19.19,25.27,29.63a65.53,65.53,0,0,0,36.28,10.43q24.3,0,41.8-12.12a73.43,73.43,0,0,0,19.44-20.87q5.84-9.76,16.2-9.76Q1117.75,410.74,1123.1,421Z"/><path d="M1255.77,279.77l74.84,209.41h-15.23a32.1,32.1,0,0,1-19.76-6.56,34.88,34.88,0,0,1-12.32-17L1274.88,440H1173.15l-8.75,25.58a33.82,33.82,0,0,1-12.31,17.17,32.13,32.13,0,0,1-19.44,6.4H1117.1l75.17-209.75a32.44,32.44,0,0,1,7.12-11.95,34.8,34.8,0,0,1,11.18-8.08,33,33,0,0,1,26.89,0,34.8,34.8,0,0,1,11.18,8.08A32.36,32.36,0,0,1,1255.77,279.77Zm-73.55,133h83.27L1224,288.86Z"/><path d="M1514.63,308.72q13.93,26.26,13.93,61.95,0,35.35-13.93,61.95a99.13,99.13,0,0,1-40.82,41.07q-26.89,15.15-64.15,15.15H1375q-18.48,0-31.43-13.63a45.53,45.53,0,0,1-13-32.49V299.3a45,45,0,0,1,13-32.32A42,42,0,0,1,1375,253.51h34.66q37.26,0,64.15,14.48A99.73,99.73,0,0,1,1514.63,308.72ZM1468,432.62q22.35-22.22,22.35-61.95,0-40.07-22.35-62.28-22-22.23-62.21-22.22h-37.58V415.79a38.34,38.34,0,0,0,11,27.6,35.5,35.5,0,0,0,26.56,11.45Q1445.63,454.84,1468,432.62Z"/><path d="M1580.72,383.13v76.09H1674a31.07,31.07,0,0,1-9.88,20.87,29.88,29.88,0,0,1-21.22,8.42h-68.36a29.72,29.72,0,0,1-22.2-9.6,32.09,32.09,0,0,1-9.23-23.06V285.49a31.67,31.67,0,0,1,9.23-22.72,29.72,29.72,0,0,1,22.2-9.6H1674a32.16,32.16,0,0,1-10.21,20.54,29.44,29.44,0,0,1-20.89,8.42h-62.21v73.39H1664a34.61,34.61,0,0,1-3.73,11.11,33.52,33.52,0,0,1-6.8,8.75,29,29,0,0,1-9.4,5.73,31.49,31.49,0,0,1-11.18,2Z"/><circle cx="278.58" cy="277.21" r="265.39" fill="#0b2f72" stroke="#0b2f72" stroke-miterlimit="10" stroke-width="12"/><path d="M279.63,8.81c146,0,262.79,119.82,262.79,264.92" fill="#0b2f72" stroke="#9c9690" stroke-miterlimit="10"/><path d="M244.14,19.61" fill="none" stroke="#ddd9d7" stroke-miterlimit="10" stroke-width="11"/><path d="M4.83,283.43" fill="none" stroke="#ddd9d7" stroke-miterlimit="10" stroke-width="11"/><path d="M434.51,441.51C399.35,399.78,378,344.67,378,284.25c0-66.1,25.58-125.85,66.81-168.71,41.21,42.89,66.79,102.63,66.79,168.71s-46.16,146-87.37,188.86" fill="none" stroke="#89807a" stroke-linejoin="round" stroke-width="50"/><g opacity="0.95"><path d="M393.74,283.92c0,41.05,16.08,89.7,16.08,89.7,5.18,15.67-3.5,24.56-19.29,19.77L164.78,324.8c-15.78-4.8-28.7-22.22-28.7-38.72v-1.5c0-16.5,12.87-34.06,28.61-39l226-71.43c15.73-5,24.36,3.78,19.17,19.44C409.9,193.55,393.74,242.31,393.74,283.92Z" fill="url(#linear-gradient)"/></g><path d="M379.25,285c0,41.81,10.07,81.12,28.87,115.18l-34.79-12A263,263,0,0,1,352.55,285a271.2,271.2,0,0,1,21.12-105.44l33.57-12C388,201.91,379.25,242.67,379.25,285Z" fill="#c8c4c2"/><path d="M403.05,284.2c0,46.71,14.65,91.72,41.48,128.26l-38.79-13.13a248.71,248.71,0,0,1,.68-231.47l38.43-13.55s14,18.37,25.69,49A210.69,210.69,0,0,0,444.41,156C417.59,192.52,403.05,237.11,403.05,284.2Z" fill="#c8c4c2"/><path d="M449.1,407.5" fill="#fff"/><path d="M444.53,412.44C416,375.68,401,330.28,401,283.28a209.13,209.13,0,0,1,43.94-129,209.27,209.27,0,0,1,27.75,47.59,225.25,225.25,0,0,1,15.18,60.65c.1,1,.19,2.06.28,3.1q.8,8.87.81,18.2a210.4,210.4,0,0,1-11,66.81c-.05.14-.08.28-.13.42l-.78,2.25c-.67,1.94-1.37,3.83-2.06,5.69-.26.67-.51,1.35-.77,2-.66,1.66-1.32,3.27-2,4.87s-1.15,2.46-1.79,3.88c-.07.16-.37.72-.43.86-.31.71-.45,1-.76,1.7s-2.66,5.33-4.65,9.35a120.06,120.06,0,0,1-7.85,13.47c-2.24,3.48-6.38,9.63-8.11,12" fill="#fff"/><path d="M133.58,285.42H45.09c0,130.47,105.66,236.22,236,236.22a235,235,0,0,0,109.53-26.93c19.25-10.49,29.47-17.9,38.15-26.58" fill="none" stroke-linejoin="round" stroke-width="50" stroke="url(#linear-gradient-2)"/><path d="M541.52,279.24c0,145.7-118.11,263.81-263.81,263.81S13.9,424.94,13.9,279.24" fill="none" stroke="#0b2f72" stroke-miterlimit="10" stroke-width="12"/><path d="M278.1,12.39c144.93-2,260.62,113.73,263.42,266.85" fill="none" stroke="#0b2f72" stroke-miterlimit="10" stroke-width="12"/><path d="M13.9,279.24c0-145.7,118.5-265.83,264.2-265.83" fill="none" stroke="#0b2f72" stroke-miterlimit="10" stroke-width="12"/><path d="M278.16,4C429.57,4,552.32,126.75,552.32,278.16" fill="none" stroke="#ddd9d7" stroke-miterlimit="10" stroke-width="8"/><path d="M552.32,278.16c0,151.41-122.75,274.16-274.16,274.16S4,429.57,4,278.16,126.75,4,278.16,4" fill="none" stroke="#ddd9d7" stroke-miterlimit="10" stroke-width="8"/><path d="M1617.09,490.92" fill="none"/></svg>